<svg version="1.2" xmlns="http://www.w3.org/2000/svg" viewBox="0 0 773 233" width="773" height="233"><style>.a{fill:none;stroke:#fbfaf9;stroke-width:2.3}.b{fill:#fff}</style><path  d="m-58-25h1038v362h-1038z"/><path class="a" d="m193.6 231.2v-229.6"/><path class="b" d="m252.2 76.3q0 1.6 0.8 2.6 0.9 1.1 2.3 1.9 1.4 0.8 3.4 1.6 1.9 0.7 4 1.5 2.2 0.8 4.2 1.8 2 0.9 3.5 2.2 1.5 1.4 2.5 3.2 0.9 1.8 0.9 4.4 0 2.7-1 4.8-1 2.1-2.9 3.7-1.9 1.5-4.7 2.4-2.7 0.8-6.1 0.8-3.6 0-7.2-0.9-3.6-0.9-6.4-2.5l-0.2-0.8 1.3-8h2.7l0.4 0.3q0.3 4.2 2.7 5.9 2.5 1.8 6.7 1.8 4.1 0 6-1.5 1.9-1.5 1.9-4.3 0-1.9-0.8-3.1-0.8-1.2-2.2-2.1-1.4-0.8-3.4-1.5-2-0.6-4.4-1.5-2.2-0.8-4-1.7-1.9-1-3.2-2.3-1.4-1.3-2.2-3.1-0.8-1.8-0.8-4.3 0-5.3 3.5-8.2 3.4-2.8 10.5-2.8 3.3 0 6.1 0.7 2.8 0.8 4.8 1.8l0.2 0.6-1 6.9h-2.8l-0.3-0.3q-0.4-2.5-2.2-3.9-1.8-1.4-5.1-1.4-3.6 0-5.5 1.4-2 1.5-2 3.9z"/><path class="b" d="m301.5 101.4q-1.6 2.6-4 4.2-2.4 1.6-6.1 1.6-1.7 0-3.3-0.4-1.6-0.5-2.8-1.4-1.3-0.9-2.3-2.3-1-1.5-1.4-3.6-0.1-0.5-0.2-1.2-0.1-0.7-0.1-1.7 0-1.1-0.1-2.6 0-1.5 0-3.8v-5.4q0-0.7-0.3-1.4-0.3-0.6-0.5-0.8-0.6-0.7-1.5-0.8-0.9-0.2-1.8-0.2l-0.2-0.2v-2l0.2-0.2h2.9q1.4 0 3 0 1.5-0.1 2.7-0.3l2.1-0.3 0.4 1.2q-0.1 0.2-0.2 0.9-0.1 0.6-0.1 1.3-0.1 0.7-0.1 1.4 0 0.6 0 1 0 0.8 0 1.9-0.1 1.1-0.1 2.3 0 1.2 0 2.2-0.1 1.1-0.1 1.8 0 1.6 0.2 3.2 0.1 1.6 0.4 2.9 0.6 2.1 1.9 3.1 1.2 1 3.4 1 1.8 0 3.2-0.6 1.5-0.6 2.5-1.4 1-0.9 1.7-1.9 0.6-1 0.8-1.7v-6.1q0-2.7-0.1-4.2-0.1-1.5-0.2-2.4-0.1-0.8-0.3-1.2-0.2-0.5-0.4-0.7-0.7-0.7-1.7-0.8-1-0.2-1.6-0.2l-0.3-0.2v-2l0.3-0.2h1.1q0.6 0 1.5 0 1 0 2.1 0 1.1-0.1 2.1-0.1 1.1 0 1.8-0.2l2.1-0.3 0.3 1.2q-0.3 1.7-0.4 4.5 0 1.6-0.1 2.5 0 0.9 0 1.5 0 0.6 0 0.9 0 0.4 0 0.7v4.9q0 3.3 0.2 5.8 0.1 1.2 0.3 1.9 0.1 0.7 0.6 1.1 0.6 0.5 1.3 0.6 0.7 0 1.7 0l0.3 0.3 0.1 2-0.1 0.2q-1.2-0.1-2.3-0.1-1-0.1-2.5-0.1-1.4 0-3 0.1-1.7 0-3.2 0.1l-0.3-1.2q0.2-0.7 0.4-1.8 0.2-1.1 0.3-2.2z"/><path class="b" d="m325.9 85.2q0.6-1.1 1.3-2.4 0.8-1.2 1.7-2.3 1-1.1 2.2-1.8 1.2-0.7 2.8-0.7 0.5 0 1.2 0.1 0.7 0.1 1.4 0.2 0.7 0.2 1.3 0.5 0.7 0.2 1 0.5l0.5 0.4-0.7 6.5h-2.6q-0.2-0.8-1-1.5-0.7-0.8-2.3-0.8-1.4 0-2.5 0.7-1.1 0.7-2 1.7-0.8 1.1-1.3 2.2-0.5 1.2-0.5 2.2v4.1q0 2.3 0 3.4 0.1 1.2 0.1 2 0.1 1.3 0.3 2.2 0.3 0.8 0.8 1.2 0.2 0.2 0.7 0.4 0.5 0.1 1 0.2 0.6 0 1.1 0 0.5 0 0.8 0l0.3 0.3 0.1 2-0.1 0.3q-0.4 0-1.2-0.1-0.8 0-1.8-0.1-0.9 0-1.8 0-0.8-0.1-1.2-0.1h-3.8q-0.5 0-1.3 0.1-0.9 0-1.9 0-0.9 0.1-1.8 0.1-0.9 0.1-1.3 0.1l-0.1-0.3 0.2-2 0.1-0.3q1.1 0 2 0 0.9-0.1 1.4-0.6 0.4-0.4 0.6-1.1 0.2-0.7 0.4-2.3 0-0.7 0-1.9 0-1.2 0-3.4v-4.4q0-1.2 0-2.1 0-0.9 0-1.5 0-0.7-0.1-1.2 0-0.6-0.1-1.2-0.1-0.6-0.3-1.1-0.2-0.6-0.4-0.7-0.6-0.8-1.5-0.9-0.9-0.2-1.9-0.2l-0.2-0.2v-2l0.2-0.2h1.1q1.3 0 3.4 0 2.1-0.1 3.7-0.3l2.1-0.3 0.3 1.2q-0.3 1.1-0.5 2.6-0.1 1.4-0.1 2.8z"/><path fill-rule="evenodd" class="b" d="m348.3 98.4q-3-1.2-4.4-3.8-1.4-2.6-1.4-5.7 0-2.3 0.8-4.2 0.8-2 2.2-3.5 1.5-1.5 3.6-2.3 2.1-0.9 4.7-0.9 1.6 0 3.1 0.3 1.5 0.3 2.7 0.9 2.5-0.1 4.7-0.3 2.2-0.3 4.1-0.8l0.3 0.2-0.4 4.5-0.3 0.4-4.5-0.5-0.1 0.1q1 1.1 1.5 2.9 0.6 1.8 0.6 3.5 0 1.9-0.8 3.7-0.7 1.8-2.2 3.2-1.4 1.4-3.6 2.2-2.1 0.8-5 0.8-0.3 0-0.9-0.1-0.6 0-0.9 0-1 0.4-1.5 1.2-0.5 0.7-0.5 1.2 0 1.3 2.8 1.6l5.8 0.6q2 0.3 3.7 0.9 1.8 0.6 3 1.6 1.3 1 2.1 2.4 0.7 1.4 0.7 3.3 0 1.7-0.8 3.5-0.8 1.7-2.3 3.1-1.6 1.3-4.4 2.2-2.7 0.8-6.3 0.8-3.3 0-5.7-0.7-2.3-0.6-3.9-1.8-1.6-1.2-2.4-2.7-0.8-1.4-0.8-3 0-2.5 1.7-4.5 1.6-1.9 4.2-2.7l0.1-0.2q-1.5-0.5-2.4-1.4-0.8-0.8-0.8-2 0-1.5 1.2-2.5 1.3-0.9 2.7-1.3zm5.8-3.4q1.1 0 2.1-0.5 0.9-0.5 1.6-1.3 0.6-0.8 1-1.8 0.3-1.1 0.3-2.2 0-1.2-0.4-2.4-0.3-1.2-1-2.2-0.6-1-1.7-1.6-1-0.7-2.3-0.7-1.3 0-2.2 0.6-0.9 0.6-1.5 1.5-0.6 0.9-0.9 2-0.3 1.2-0.3 2.3 0 1.1 0.3 2.2 0.3 1.2 1 2.1 0.6 0.9 1.6 1.4 1 0.6 2.4 0.6zm-2 12.9q-1.3 0-2.3 0.5-0.9 0.4-1.6 1.1-0.6 0.7-1 1.5-0.3 0.8-0.3 1.6 0 1.7 2.1 2.8 2.1 1.1 5.7 1.1 3.3 0 5.5-1 2.2-1.1 2.2-3.1 0-1.2-0.5-1.9-0.6-0.7-1.5-1.1-0.9-0.5-2-0.7-1.1-0.3-2.2-0.4z"/><path class="b" d="m386.9 106.8q-0.4 0-1.3-0.1-0.8 0-1.8-0.1-1 0-1.8 0-0.8-0.1-1.3-0.1h-3.2q-0.4 0-1.3 0.1-0.9 0-1.8 0-0.9 0.1-1.8 0.1-0.9 0.1-1.3 0.1l-0.1-0.3 0.2-2 0.1-0.3q0.9 0 1.9 0 1-0.1 1.5-0.6 0.4-0.4 0.6-1.1 0.1-0.7 0.2-1.9 0.1-0.4 0.1-0.8 0.1-0.4 0.1-0.9 0-0.5 0-1.1 0-0.7 0-1.7v-6.8q0-1.1 0-1.8 0-0.7 0-1.2 0-0.4-0.1-0.8 0-0.4-0.1-1-0.1-0.6-0.3-1.1-0.2-0.6-0.4-0.7-0.6-0.8-1.5-0.9-0.9-0.2-1.9-0.2l-0.2-0.2v-2l0.2-0.2h3.1q1.3 0 2.9 0 1.6-0.1 2.8-0.3l2.1-0.3 0.3 1.2q-0.1 0.2-0.2 0.7-0.1 0.5-0.1 1.1 0 0.6 0 1.2-0.1 0.5-0.1 0.9 0 0.5 0 0.9 0 0.4 0 0.9 0 0.5-0.1 1.2 0 0.8 0 2v6.7q0 1.2 0 2 0.1 0.7 0.1 1.3 0 0.5 0.1 1 0 0.4 0 0.9 0.2 1.3 0.3 1.9 0.2 0.7 0.7 1.1 0.4 0.5 1.3 0.6 0.9 0 1.8 0l0.3 0.3 0.1 2zm-12.2-37.1q0-0.7 0.3-1.4 0.3-0.7 0.8-1.3 0.6-0.6 1.3-0.9 0.7-0.3 1.4-0.3 1.5 0 2.8 1.2 1.2 1.3 1.2 2.7 0 0.8-0.3 1.5-0.4 0.7-0.9 1.3-0.6 0.5-1.3 0.8-0.7 0.3-1.5 0.3-1.5 0-2.7-1.1-1.1-1.2-1.1-2.8z"/><path class="b" d="m413 87.1l-0.2-0.2q0-1.4-0.8-2.2-0.8-0.9-2-1.4-1.1-0.5-2.4-0.6-1.3-0.2-2.3-0.2-2.1 0-3.8 0.8-1.6 0.9-2.6 2.3-1 1.3-1.5 3.1-0.6 1.8-0.6 3.8 0 2 0.6 3.9 0.6 1.8 1.7 3.3 1.2 1.4 2.9 2.3 1.8 0.9 4.2 0.9 2.1 0 4.3-0.5 2.3-0.4 4.1-1.3l1.1 1.4-0.9 1.7q-0.7 0.5-1.8 1-1 0.5-2.3 0.9-1.3 0.5-2.9 0.8-1.5 0.3-3 0.3-3 0-5.6-1.1-2.7-1-4.7-2.9-2-1.9-3.2-4.6-1.2-2.6-1.2-5.9 0-3.3 1.2-6 1.2-2.7 3.3-4.6 2.1-2 4.9-3 2.8-1.1 5.9-1.1 1.5 0 3 0.2 1.4 0.2 2.8 0.5 1.3 0.3 2.4 0.7 1.1 0.4 1.8 0.7l0.1 0.6-0.6 6.4z"/><path fill-rule="evenodd" class="b" d="m436.5 106.1q0.2-0.5 0.3-1.6 0.1-1 0.3-1.8l-0.1-0.2q-0.7 0.9-1.7 1.7-0.9 0.9-2 1.5-1.2 0.7-2.5 1.1-1.3 0.4-2.7 0.4-2.2 0-3.8-0.7-1.6-0.6-2.7-1.7-1.1-1.1-1.6-2.5-0.6-1.5-0.6-3 0-2.4 1-4.1 1-1.8 2.7-2.9 1.6-1 3.7-1.5 2.1-0.6 4.1-0.9 2-0.3 3.6-0.4 1.6-0.1 2.1-0.1h0.9q-0.1-1.9-0.3-2.9-0.1-1.1-0.4-1.8-0.6-1.2-1.8-1.7-1.3-0.5-2.9-0.5-1.1 0-2.2 0.1-1.2 0.2-2.2 0.6-1 0.4-1.8 1.2-0.7 0.7-0.9 1.9l-0.2 0.2h-1.9l-0.6-5.6 0.2-0.4q0.4-0.4 1.4-0.8 1-0.4 2.5-0.8 1.4-0.4 3.1-0.7 1.7-0.2 3.5-0.2 2.3 0 4.4 0.6 2 0.5 3.5 1.7 1.4 1.1 2.3 2.8 0.8 1.7 0.8 4 0 2.5 0 4.2 0 1.8-0.1 3.3 0 1.5-0.1 2.9 0 1.4 0 3.1 0.1 1.4 0.3 2 0.2 0.6 0.6 1 0.5 0.5 1.5 0.6 1 0 1.8 0l0.2 0.3 0.1 2-0.1 0.3q-1-0.2-2.3-0.2-1.3-0.1-2.5-0.1-1.7 0-3.3 0.1-1.7 0-3.2 0.1zm0-6.5q0.2-0.3 0.4-0.7 0.2-0.4 0.2-1l0.3-5.1h-0.5q-1.9 0-3.7 0.2-1.8 0.3-3.2 0.9-1.5 0.7-2.4 1.9-0.9 1.2-0.9 3.1 0 1.6 0.9 2.6 0.8 0.9 2.1 0.9 1.1 0 2.1-0.2 1.1-0.3 2-0.7 0.9-0.4 1.6-0.9 0.7-0.5 1.1-1z"/><path class="b" d="m465.5 106.8q-0.4 0-1.2-0.1-0.9 0-1.8-0.1-1 0-1.8 0-0.9-0.1-1.3-0.1h-3.2q-0.5 0-1.3 0.1-0.9 0-1.8 0-1 0.1-1.8 0.1-0.9 0.1-1.3 0.1l-0.1-0.3 0.1-2 0.2-0.3q0.9 0 1.9 0 0.9-0.1 1.4-0.6 0.4-0.4 0.6-1.1 0.2-0.7 0.3-1.9 0.1-0.4 0.1-0.8 0-0.4 0.1-0.9 0-0.5 0-1.1 0-0.7 0-1.7v-23.4q0-1.1 0-1.8 0-0.7 0-1.2-0.1-0.4-0.1-0.8 0-0.4-0.1-1-0.1-0.6-0.3-1.1-0.3-0.5-0.4-0.7-0.7-0.8-1.6-0.9-0.9-0.1-1.8-0.1l-0.3-0.3v-2l0.3-0.2h3.1q1.3 0 2.9 0 1.6-0.1 2.8-0.3l2.1-0.3 0.3 1.2q-0.1 0.2-0.2 0.7-0.1 0.6-0.1 1.1 0 0.6-0.1 1.2 0 0.5 0 0.9 0 0.5 0 0.9-0.1 0.4-0.1 0.9 0 0.5 0 1.3 0 0.8 0 1.9v23.3q0 1.2 0 2 0 0.7 0.1 1.3 0 0.5 0 1 0.1 0.4 0.1 0.9 0.1 1.3 0.3 1.9 0.1 0.7 0.6 1.1 0.5 0.5 1.4 0.6 0.9 0 1.7 0l0.3 0.3 0.2 2z"/><path fill-rule="evenodd" class="b" d="m504.4 66.6l10.3 27.2q0.6 1.5 1 2.6 0.4 1 0.7 1.7 0.2 0.7 0.4 1.2 0.3 0.4 0.4 0.8 0.8 1.5 1.5 2.3 0.8 0.8 1.5 1.2 0.8 0.4 1.6 0.5 0.7 0 1.5 0l0.3 0.3 0.2 2.3-0.1 0.2q-0.4 0-1.3-0.1-0.8 0-1.7-0.1-0.9 0-1.7-0.1-0.9-0.1-1.3-0.1h-4.4q-0.4 0-1.4 0.1-0.9 0.1-2 0.1-1 0.1-2 0.1-0.9 0.1-1.4 0.1l-0.1-0.2 0.2-2.3 0.2-0.3q1.6 0 2.4-0.4 0.8-0.4 0.8-2.1 0-1-0.3-2.7-0.3-1.8-1.5-4.5l-1.3-2.8h-10.5l-1.2 2.8q-1.1 2.7-1.6 4.6-0.6 1.8-0.6 2.6 0 1.4 0.6 2 0.6 0.5 2.2 0.5l0.3 0.3 0.2 2.3-0.2 0.2q-0.4 0-1.3-0.1-0.9 0-1.9-0.1-1 0-1.9-0.1-0.9-0.1-1.3-0.1h-3.5q-0.5 0-1.3 0.1-0.8 0.1-1.7 0.1-0.9 0.1-1.8 0.1-0.8 0.1-1.2 0.1v-0.2l0.1-2.3 0.3-0.3q0.8 0 1.5-0.1 0.8-0.1 1.6-0.5 0.8-0.5 1.5-1.2 0.8-0.8 1.6-2 0.1-0.3 0.5-1.1 0.4-0.7 1.1-2.6 0.8-2 2.2-5.5 1.4-3.6 3.7-9.5l5.1-13.2 4.3-1.8zm-6.9 20.6h7.8l-3.8-10.7z"/><path class="b" d="m542.8 67.1l-0.1 2.3-0.3 0.2q-0.9 0-1.8 0.1-0.8 0.1-1.4 0.5-0.6 0.4-1 1.1-0.5 0.7-0.5 2.4 0 0.8-0.1 1.5 0 0.7 0 1.7-0.1 1-0.1 2.3 0 1.4 0 3.6v8.6q0 2.2 0 3.6 0 1.3 0.1 2.2 0 0.9 0 1.5 0.1 0.7 0.1 1.4 0.2 1.7 0.6 2.3 0.4 0.7 0.9 1.1 0.5 0.4 1.4 0.5 0.9 0.1 1.8 0.1l0.3 0.3 0.1 2.3-0.1 0.2q-0.4 0-1.4-0.1-0.9 0-2-0.1-1 0-1.9-0.1-1-0.1-1.4-0.1h-3.6q-0.4 0-1.3 0.1-1 0.1-2 0.1-1 0.1-2 0.1-1 0.1-1.4 0.1l-0.1-0.2 0.2-2.3 0.3-0.3q0.9 0 1.8-0.1 0.9-0.1 1.4-0.5 0.4-0.4 0.8-1.1 0.4-0.6 0.7-2.3 0-0.4 0-1 0-0.6 0-1.4 0.1-0.8 0.1-2 0-1.2 0-3.1v-9.8q0-2.1 0-3.5 0-1.4-0.1-2.5 0-1 0-1.7 0-0.7-0.1-1.4-0.1-1.6-0.5-2.3-0.5-0.8-0.9-1.2-0.6-0.4-1.4-0.5-0.9-0.1-1.8-0.1l-0.3-0.2-0.2-2.3 0.1-0.2q0.4 0 1.4 0 1 0.1 2 0.1 1 0.1 2 0.2 0.9 0 1.3 0h3.6q0.4 0 1.4 0 0.9-0.1 1.9-0.2 1.1 0 2-0.1 1 0 1.4 0z"/><path class="b" d="m567.2 73.7q-0.1-1.1-0.5-2.1-0.3-1-0.9-1.4-0.5-0.3-1.3-0.5-0.7-0.1-1.9-0.1l-0.3-0.2-0.2-2.3 0.1-0.2q0.5 0 1.5 0.1 0.9 0 1.9 0.1 1 0.1 1.9 0.1 0.9 0 1.4 0h3.6q0.5 0 1.4 0 0.9 0 1.9-0.1 0.9-0.1 1.9-0.1 0.9-0.1 1.5-0.1l0.1 0.2-0.2 2.3-0.2 0.2q-1.5 0-2.2 0.2-0.7 0.1-1.1 0.4-1.3 0.9-1.4 3.5-0.1 0.5-0.1 1.2-0.1 0.6-0.1 1.6 0 1 0 2.5 0 1.5 0 3.8v8q0 2.4 0 3.9 0 1.4 0.1 2.4 0 1 0 1.8 0.1 0.7 0.2 1.7 0 1.2 1.4 1.2h5.6q1.9 0 3.1-0.1 1.2 0 1.8-0.4 0.7-0.4 1.1-1.1 0.3-0.8 0.6-2l0.2-0.3h2.8l-1.1 8.3-0.5 0.6q-0.5-0.1-1.5-0.1-1-0.1-2.2-0.1-1.1 0-2.2 0-1.1-0.1-1.7-0.1h-12.8q-0.4 0-1.3 0.1-1 0-2 0.1-1 0-2 0.1-0.9 0-1.4 0.1l-0.1-0.2 0.2-2.3 0.3-0.3q2.2 0 3.1-0.6 0.5-0.5 0.9-1.4 0.5-0.9 0.6-2.1 0-0.6 0.1-1.6 0-1.1 0-2.2 0.1-1.2 0.1-2.1 0-1 0-1.5v-9.8q0-3.3-0.1-5.8 0-2.5-0.1-3.3z"/><path fill-rule="evenodd" class="b" d="m610.2 106.1q0.2-0.5 0.3-1.6 0.1-1 0.3-1.8l-0.1-0.2q-0.7 0.9-1.7 1.7-0.9 0.9-2 1.5-1.2 0.7-2.5 1.1-1.2 0.4-2.7 0.4-2.2 0-3.8-0.7-1.6-0.6-2.7-1.7-1.1-1.1-1.6-2.5-0.6-1.5-0.6-3 0-2.4 1-4.1 1-1.8 2.7-2.9 1.6-1 3.7-1.5 2.1-0.6 4.1-0.9 2-0.3 3.6-0.4 1.6-0.1 2.1-0.1h0.9q-0.1-1.9-0.3-2.9-0.1-1.1-0.4-1.8-0.6-1.2-1.8-1.7-1.2-0.5-2.9-0.5-1 0-2.2 0.1-1.2 0.2-2.2 0.6-1 0.4-1.8 1.2-0.7 0.7-0.9 1.9l-0.2 0.2h-1.9l-0.6-5.6 0.2-0.4q0.4-0.4 1.4-0.8 1-0.4 2.5-0.8 1.4-0.4 3.1-0.7 1.7-0.2 3.5-0.2 2.3 0 4.4 0.6 2 0.5 3.5 1.7 1.4 1.1 2.3 2.8 0.8 1.7 0.8 4 0 2.5 0 4.2 0 1.8-0.1 3.3 0 1.5-0.1 2.9 0 1.4 0 3.1 0.1 1.4 0.3 2 0.2 0.6 0.6 1 0.5 0.5 1.5 0.6 1 0 1.8 0l0.2 0.3 0.1 2-0.1 0.3q-1-0.2-2.3-0.2-1.3-0.1-2.5-0.1-1.6 0-3.3 0.1-1.7 0-3.2 0.1zm0-6.5q0.2-0.3 0.4-0.7 0.2-0.4 0.3-1l0.2-5.1h-0.5q-1.9 0-3.7 0.2-1.8 0.3-3.2 0.9-1.5 0.7-2.4 1.9-0.9 1.2-0.9 3.1 0 1.6 0.9 2.6 0.8 0.9 2.1 0.9 1.1 0 2.1-0.2 1.1-0.3 2-0.7 0.9-0.4 1.6-0.9 0.7-0.5 1.1-1z"/><path fill-rule="evenodd" class="b" d="m634.5 101.7q0 1.2 0.2 2.2 0.2 0.9 0.5 1.6l-0.4 1h-2.8q-0.6 0-1.7 0.1-1.1 0-2.3 0-1.3 0.1-2.4 0.1-1.1 0.1-1.7 0.1l-0.1-0.3 0.1-2 0.2-0.3q0.9 0 1.7 0 0.8-0.1 1.3-0.6 0.5-0.4 0.7-1.1 0.3-0.7 0.3-1.9v-0.7q0-0.6 0-1.1 0-0.4 0-1.2 0-0.7 0.1-1.9 0-1.2 0-3.2v-13.9q0-2.4 0-4-0.1-1.7-0.1-2.8 0-1.2-0.1-2 0-0.8 0-1.9-0.1-0.6-0.5-1.2-0.3-0.5-0.6-0.7-0.7-0.6-1.6-0.8-0.9-0.1-1.8-0.1l-0.3-0.3v-2l0.3-0.2h3q1.3 0 3.1 0 1.7-0.1 2.9-0.3l2.1-0.3 0.4 1.2q-0.1 0.2-0.2 0.9-0.1 0.6-0.2 1.3 0 0.7-0.1 1.4 0 0.6 0 1 0 1 0 1.7 0 0.8 0 1.8 0 1 0 2.6 0 1.5 0 4 0 2.6-0.1 3.8-0.1 1.1-0.1 1.9l0.2 0.1q1.7-2.5 4.2-4.1 2.5-1.6 5.7-1.6 3.5 0 5.9 1.2 2.5 1.2 4.2 3.2 1.6 1.9 2.4 4.5 0.8 2.6 0.8 5.3 0 4.1-1.3 7-1.3 2.8-3.2 4.6-2 1.8-4.3 2.6-2.3 0.8-4.4 0.8-2.9 0-5.5-1.3-2.5-1.2-4.4-4.3zm16.2-9.3q0-1.8-0.5-3.5-0.4-1.7-1.3-3.1-0.9-1.3-2.3-2.2-1.4-0.8-3.4-0.8-2 0-3.6 0.7-1.6 0.7-2.7 1.7-1.1 1-1.8 2.1-0.6 1.1-0.6 1.8v6.7q0.1 0.8 0.6 1.9 0.6 1.1 1.7 2.2 1 1 2.6 1.8 1.5 0.7 3.7 0.7 2 0 3.4-0.9 1.5-0.9 2.4-2.2 1-1.4 1.4-3.2 0.4-1.8 0.4-3.7z"/><path class="b" d="m258.5 158.9q-0.3 0-0.8 0-0.6-0.1-1.2-0.1-0.6 0-1.2-0.1-0.6 0-0.8 0h-2.2q-0.2 0-0.8 0-0.5 0.1-1.2 0.1-0.6 0-1.1 0.1-0.6 0-0.8 0l-0.1-0.1 0.1-0.7 0.2-0.2q0.6 0 1.3 0 0.8-0.1 1.1-0.3 0.3-0.3 0.6-0.7 0.3-0.4 0.4-1.4 0-0.3 0.1-0.7 0-0.3 0-0.8 0-0.6 0-1.3 0-0.8 0-1.9v-7.5q0-2.5 0-4.3-0.1-1.9-0.1-2.9h-0.4q-1.9 0-3.1 0-1.1 0-1.9 0.1-0.7 0.1-1.1 0.1-0.3 0.1-0.5 0.2-0.8 0.5-1 2l-0.1 0.1h-0.9l0.3-4.2 0.1-0.4 0.3-0.1q0.3 0.1 1.3 0.2 1 0.1 2.2 0.2 1.2 0 2.3 0 1.1 0 1.5 0h4.7q0.5 0 1.6 0 1.1 0 2.3 0 1.2-0.1 2.2-0.2 1-0.1 1.3-0.2l0.2 0.1 0.2 0.4 0.3 4.2h-0.9l-0.2-0.1q-0.1-1.5-1-2-0.1-0.1-0.5-0.2-0.3 0-1-0.1-0.8-0.1-2-0.1-1.2 0-3 0h-0.4q0 1.1-0.1 2.8 0 1.8 0 4.3v6.9q0 1.3 0 2.2 0 0.8 0 1.4 0.1 0.5 0.1 0.9 0 0.4 0 0.9 0.1 1 0.4 1.4 0.4 0.4 0.7 0.7 0.3 0.2 1 0.3 0.8 0 1.4 0l0.2 0.2 0.1 0.7z"/><path class="b" d="m271 145.5q0.4-0.7 0.8-1.5 0.5-0.8 1.1-1.5 0.6-0.6 1.3-1.1 0.8-0.4 1.8-0.4 0.6 0 1.5 0.2 0.8 0.2 1.1 0.5l0.3 0.4-0.4 2.8h-1.3q-0.1-0.5-0.5-0.9-0.5-0.4-1.5-0.4-0.9 0-1.7 0.5-0.8 0.5-1.3 1.4-0.6 0.8-0.9 1.7-0.4 0.9-0.4 1.6v3.4q0 0.8 0.1 1.3 0 0.5 0 0.8 0 0.4 0 0.7 0.1 0.2 0.1 0.5v0.3q0.1 0.5 0.2 1 0.1 0.5 0.4 0.8 0.1 0.2 0.5 0.2 0.3 0.1 0.7 0.2 0.4 0 0.8 0 0.4 0 0.6 0l0.2 0.2 0.1 0.5-0.1 0.1q-0.3 0-0.8 0-0.6 0-1.3-0.1-0.6 0-1.2 0-0.6 0-0.8 0h-0.9q-0.3 0-0.8 0-0.6 0-1.1 0-0.6 0.1-1.2 0.1-0.5 0-0.8 0v-0.1-0.5l0.2-0.2q0.6 0 1.1 0 0.6-0.1 0.9-0.4 0.3-0.3 0.4-0.7 0.1-0.4 0.2-1.1v-0.3q0-0.4 0.1-1 0-0.5 0-1.9v-4.6q0-0.7 0-1.3 0-0.5 0-0.9-0.1-0.5-0.1-0.8 0-0.3 0-0.7-0.1-0.4-0.3-0.7-0.1-0.3-0.2-0.5-0.4-0.4-1-0.5-0.5-0.1-1.1-0.1l-0.1-0.1v-0.6l0.1-0.1h0.7q0.6 0 1.6 0 0.9 0 1.6-0.1l1.4-0.2 0.2 0.3q-0.2 0.8-0.3 1.8-0.1 1-0.1 2z"/><path fill-rule="evenodd" class="b" d="m291.7 158.4q0.1-0.4 0.1-1.2 0.1-0.8 0.2-1.5v-0.1q-0.5 0.6-1.2 1.3-0.7 0.6-1.5 1.1-0.8 0.5-1.7 0.8-0.9 0.3-1.9 0.3-1.2 0-2-0.4-0.9-0.4-1.5-1.1-0.6-0.7-0.9-1.6-0.3-0.9-0.3-1.8 0-1.4 0.6-2.4 0.6-1 1.7-1.7 0.9-0.6 2.3-1 1.3-0.4 2.5-0.5 1.3-0.2 2.3-0.2 1-0.1 1.3-0.1h0.6q-0.1-1.4-0.2-2.2-0.1-0.8-0.3-1.3-0.4-1.1-1.4-1.6-1-0.5-2.4-0.5-0.6 0-1.3 0.1-0.7 0.1-1.3 0.4-0.6 0.3-1.1 0.8-0.4 0.6-0.5 1.4l-0.1 0.1h-0.9l-0.3-2.7 0.1-0.3q0.2-0.2 0.8-0.4 0.6-0.3 1.4-0.5 0.8-0.3 1.8-0.4 1-0.2 1.9-0.2 1.4 0 2.5 0.3 1.2 0.4 2 1.1 0.9 0.7 1.3 1.8 0.5 1 0.5 2.5 0 1.5 0 2.7 0 1.2-0.1 2.3 0 1 0 2 0 1 0 2.1 0.1 0.8 0.2 1.2 0.1 0.4 0.3 0.6 0.3 0.3 0.9 0.4 0.6 0 1.2 0l0.1 0.2 0.1 0.5-0.1 0.1q-0.6 0-1.4-0.1-0.8 0-1.5 0-1.5 0-2.6 0.1zm0-4q0.1-0.2 0.2-0.5 0.2-0.2 0.2-0.6l0.2-3.7h-0.4q-1.4 0-2.9 0.1-1.5 0.2-2.7 0.7-1.2 0.5-1.9 1.3-0.8 0.9-0.8 2.2 0 1.5 0.9 2.3 0.8 0.8 2.1 0.8 0.8 0 1.5-0.2 0.8-0.3 1.5-0.7 0.7-0.4 1.2-0.9 0.6-0.4 0.9-0.8z"/><path class="b" d="m304.7 144.8q1-1.7 2.5-2.7 1.5-1.1 3.8-1.1 1 0 2.1 0.3 1 0.3 1.9 0.9 0.9 0.6 1.5 1.6 0.5 1 0.7 2.4 0.1 0.9 0.2 2 0 1.1 0 2.2 0 1.3 0 2.7 0 1.3 0 2.7 0.1 0.8 0.2 1.2 0.1 0.4 0.3 0.6 0.4 0.3 1 0.4 0.5 0 1.1 0l0.1 0.2 0.1 0.5-0.1 0.1q-0.6 0-1.4-0.1-0.8 0-1.5 0-1.4 0-2.6 0.1l-0.2-0.4q0.1-0.5 0.2-1.2 0.1-0.8 0.1-1.4 0.1-1.6 0.1-3.1 0-1.5 0-2.5 0-0.9 0-1.9-0.1-1-0.3-1.7-0.3-1.8-1.5-2.6-1.1-0.9-2.7-0.9-1.2 0-2.3 0.5-1 0.6-1.8 1.3-0.7 0.8-1.1 1.6-0.5 0.9-0.5 1.5v4.2q0 0.8 0 1.3 0 0.5 0.1 0.9 0 0.4 0 0.7 0 0.3 0.1 0.7 0.1 0.8 0.2 1.2 0 0.3 0.3 0.6 0.3 0.3 0.9 0.4 0.5 0 1.1 0l0.2 0.2v0.5 0.1q-0.3 0-0.8 0-0.5 0-1.1-0.1-0.6 0-1.2 0-0.5 0-0.7 0h-0.6q-0.2 0-0.8 0-0.5 0-1.1 0-0.5 0.1-1.1 0.1-0.5 0-0.8 0v-0.1-0.5l0.2-0.2q0.5 0 1.1 0 0.6-0.1 0.9-0.4 0.3-0.3 0.4-0.7 0.1-0.4 0.2-1.1 0-0.6 0-1.2 0.1-0.6 0.1-2v-4.6q0-0.7 0-1.3 0-0.5 0-0.9-0.1-0.5-0.1-0.8 0-0.3 0-0.7-0.1-0.4-0.3-0.7-0.1-0.3-0.2-0.5-0.4-0.4-1-0.5-0.5-0.1-1.1-0.1l-0.2-0.1v-0.6l0.2-0.1h0.7q0.6 0 1.6 0 0.9 0 1.6-0.1l1.3-0.2 0.3 0.3q-0.2 0.5-0.3 1.4-0.1 0.8-0.1 1.6z"/><path class="b" d="m330.8 148.8q1.6 0.3 2.6 0.9 0.9 0.6 1.4 1.3 0.5 0.6 0.7 1.3 0.2 0.7 0.2 1.3 0 1.2-0.5 2.2-0.5 1-1.4 1.8-0.9 0.7-2.2 1.1-1.3 0.4-3 0.4-1.8 0-3.4-0.4-1.6-0.5-2.5-0.9l-0.1-0.4 0.6-3.8h0.9l0.1 0.1q0 1.8 1.1 2.8 1.1 1.1 3.2 1.1 1.3 0 2.1-0.3 0.9-0.3 1.4-0.8 0.5-0.5 0.7-1 0.3-0.6 0.3-1.1 0-0.4-0.1-0.8 0-0.4-0.3-0.8-0.2-0.5-0.8-0.9-0.5-0.4-1.4-0.6l-3.6-0.9q-1.3-0.3-2-0.8-0.8-0.5-1.3-1.1-0.4-0.5-0.6-1.2-0.2-0.6-0.2-1.3 0-1.2 0.5-2.2 0.5-1 1.3-1.6 0.8-0.6 2-0.9 1.1-0.3 2.4-0.3 1.7 0 3.2 0.4 1.5 0.5 2.3 0.9l0.1 0.4-0.4 2.8h-0.8l-0.1-0.1q0-0.8-0.5-1.4-0.4-0.6-1.1-0.9-0.7-0.4-1.4-0.5-0.8-0.2-1.3-0.2-1.9 0-2.7 0.9-0.9 1-0.8 2.1-0.1 0.9 0.5 1.6 0.6 0.8 2.3 1.2z"/><path class="b" d="m348.5 143.3h-4.7v5.8q0 1.5 0 2.6 0 1.1 0 1.8 0 0.7 0 1.3 0.1 0.5 0.1 1 0.1 0.5 0.2 1 0.1 0.5 0.4 0.8 0.2 0.2 0.5 0.2 0.4 0.1 0.8 0.2 0.3 0 0.7 0 0.4 0 0.6 0l0.2 0.2 0.1 0.5-0.1 0.1q-0.3 0-0.8 0-0.6 0-1.3-0.1-0.6 0-1.2 0-0.5 0-0.8 0h-0.9q-0.2 0-0.8 0-0.5 0-1.1 0-0.6 0.1-1.2 0.1-0.5 0-0.8 0v-0.1-0.5l0.2-0.2q0.6 0 1.2 0 0.5-0.1 0.8-0.4 0.3-0.2 0.4-0.6 0.2-0.3 0.2-1.1 0.1-0.9 0.1-2.2 0-1.4 0-3.7v-6.7h-2.7l-0.2-0.2v-0.7l0.2-0.1 2.7-0.6v-2.1q0-4 1.5-6.3 1.5-2.4 4.4-2.4 0.8 0 1.8 0.3 1 0.3 2.1 0.8l0.2 0.4-0.4 2.9h-1q-0.2-1.2-1.1-1.9-1-0.6-2.2-0.6-1 0-1.6 0.4-0.6 0.4-0.9 1.1-0.3 0.7-0.3 1.6 0 0.9 0 1.9v3.9l4.7-0.2 0.2 0.2v1.4z"/><path fill-rule="evenodd" class="b" d="m360.4 141q2.2 0 3.9 0.8 1.7 0.7 2.9 2 1.2 1.3 1.8 3 0.6 1.6 0.6 3.4 0 1.7-0.6 3.3-0.5 1.6-1.7 2.9-1.1 1.2-2.9 2-1.7 0.7-3.9 0.7-2.4 0-4.1-0.8-1.8-0.8-2.9-2-1.2-1.3-1.7-2.9-0.6-1.6-0.6-3.4 0-1.8 0.6-3.4 0.7-1.7 1.9-2.9 1.1-1.3 2.8-2 1.7-0.7 3.9-0.7zm0 16.6q1.6 0 2.8-0.6 1.2-0.6 2-1.7 0.7-1 1.1-2.3 0.4-1.4 0.4-2.8 0-1.3-0.4-2.7-0.4-1.4-1.3-2.5-0.8-1.1-2-1.7-1.2-0.8-2.7-0.8-1.7 0-2.8 0.7-1.2 0.7-2 1.7-0.7 1-1.1 2.4-0.4 1.3-0.4 2.7 0 1.3 0.4 2.7 0.5 1.4 1.3 2.5 0.8 1.1 2 1.8 1.2 0.6 2.7 0.6z"/><path class="b" d="m377.9 145.5q0.3-0.7 0.8-1.5 0.5-0.8 1.1-1.5 0.6-0.6 1.3-1.1 0.8-0.4 1.8-0.4 0.6 0 1.5 0.2 0.8 0.2 1.1 0.5l0.3 0.4-0.4 2.8h-1.3q-0.1-0.5-0.5-0.9-0.5-0.4-1.5-0.4-0.9 0-1.7 0.5-0.8 0.5-1.4 1.4-0.5 0.8-0.9 1.7-0.3 0.9-0.3 1.6v3.4q0 0.8 0 1.3 0.1 0.5 0.1 0.8 0 0.4 0 0.7 0 0.2 0 0.5l0.1 0.3q0.1 0.5 0.1 1 0.1 0.5 0.4 0.8 0.2 0.2 0.6 0.2 0.3 0.1 0.7 0.2 0.4 0 0.8 0 0.4 0 0.6 0l0.2 0.2v0.5 0.1q-0.3 0-0.9 0-0.5 0-1.2-0.1-0.6 0-1.2 0-0.6 0-0.8 0h-0.9q-0.3 0-0.8 0-0.6 0-1.2 0-0.6 0.1-1.1 0.1-0.5 0-0.8 0v-0.1-0.5l0.1-0.2q0.6 0 1.2 0 0.6-0.1 0.9-0.4 0.3-0.3 0.4-0.7 0.1-0.4 0.2-1.1v-0.3q0-0.4 0-1 0.1-0.5 0.1-1.9v-4.6q0-0.7 0-1.3 0-0.5-0.1-0.9 0-0.5 0-0.8 0-0.3 0-0.7-0.1-0.4-0.3-0.7-0.1-0.3-0.2-0.5-0.4-0.4-1-0.5-0.5-0.1-1.1-0.1l-0.2-0.1v-0.6l0.2-0.1h0.7q0.6 0 1.6 0 0.9 0 1.6-0.1l1.3-0.2 0.3 0.3q-0.3 0.8-0.4 1.8 0 1 0 2z"/><path class="b" d="m387.7 141.8l0.2-0.1h0.7q0.6 0 1.6 0 0.9 0 1.6-0.1l1.3-0.2 0.3 0.3q-0.1 0.3-0.2 0.6 0 0.4-0.1 0.8 0 0.4-0.1 0.8 0 0.4 0 0.7l0.1 0.1q0.4-0.7 1-1.4 0.5-0.7 1.2-1.2 0.7-0.5 1.6-0.8 0.9-0.3 2.1-0.3 0.9 0 1.9 0.2 0.9 0.3 1.7 0.8 0.8 0.5 1.4 1.3 0.6 0.8 1 1.9 0.4-0.8 0.9-1.6 0.6-0.8 1.3-1.3 0.7-0.6 1.7-1 0.9-0.3 2.2-0.3 1 0 2.1 0.3 1 0.3 1.8 0.9 0.9 0.6 1.5 1.6 0.6 1 0.8 2.4 0.2 0.9 0.2 2 0.1 1.1 0.1 2.2v5.4q0 0.8 0.1 1.2 0.1 0.4 0.4 0.6 0.3 0.3 0.9 0.4 0.6 0 1.2 0l0.1 0.2 0.1 0.5-0.1 0.1q-0.7 0-1.4-0.1-0.8 0-1.6 0-1.3 0-2.5 0.1l-0.3-0.4q0.2-0.5 0.3-1.2 0-0.8 0.1-1.4 0-0.6 0-1.4 0-0.8 0.1-1.6 0-0.9 0-1.6 0-0.8 0-1.2 0-0.7-0.1-1.9 0-1.1-0.2-1.9-0.4-1.5-1.5-2.3-1.2-0.8-2.6-0.8-1 0-1.9 0.4-0.9 0.4-1.5 1-0.7 0.6-1.2 1.3-0.4 0.7-0.7 1.3 0.1 0.8 0.1 1.7 0 0.8 0 1.6v5.4q0 0.8 0.2 1.2 0.1 0.3 0.4 0.6 0.3 0.3 0.9 0.4 0.5 0 1.1 0l0.2 0.2v0.5 0.1q-0.3 0-0.8 0-0.5 0-1.1-0.1-0.6 0-1.2 0-0.5 0-0.7 0h-0.6q-0.2 0-0.8 0-0.5 0-1.1 0-0.6 0.1-1.1 0.1-0.5 0-0.8 0l-0.1-0.1 0.1-0.5 0.1-0.2q0.6 0 1.2 0 0.6-0.1 0.9-0.4 0.3-0.3 0.4-0.7 0-0.4 0.1-1.1 0.1-0.6 0.1-1.4 0-0.8 0-1.6 0-0.9 0.1-1.6 0-0.8 0-1.2 0-0.4 0-0.9 0-0.5-0.1-1 0-0.5-0.1-1 0-0.5-0.1-0.9-0.4-1.5-1.6-2.3-1.1-0.8-2.5-0.8-1.2 0-2.2 0.6-1 0.5-1.8 1.3-0.7 0.7-1.1 1.6-0.4 0.8-0.4 1.4v4.2q0 0.8 0.1 1.3 0 0.5 0 0.9 0 0.4 0 0.7 0 0.3 0.1 0.7 0.1 0.8 0.2 1.2 0 0.3 0.3 0.6 0.3 0.3 0.9 0.4 0.5 0 1.1 0l0.2 0.2v0.5 0.1q-0.3 0-0.8 0-0.5 0-1.1-0.1-0.6 0-1.2 0-0.5 0-0.7 0h-0.6q-0.2 0-0.8 0-0.5 0-1.1 0-0.5 0.1-1.1 0.1-0.5 0-0.8 0v-0.1-0.5l0.2-0.2q0.5 0 1.1 0 0.6-0.1 0.9-0.4 0.3-0.3 0.4-0.7 0.1-0.4 0.2-1.1 0-0.6 0-1.2 0.1-0.6 0.1-2v-4.6q0-0.7 0-1.3 0-0.5 0-0.9-0.1-0.5-0.1-0.8 0-0.3 0-0.7-0.1-0.4-0.3-0.7-0.1-0.3-0.2-0.5-0.4-0.4-1-0.5-0.5-0.1-1.1-0.1l-0.2-0.1z"/><path class="b" d="m430.3 158.8q-0.3 0-0.8 0-0.5 0-1.1-0.1-0.6 0-1.1 0-0.5 0-0.8 0h-0.5q-0.3 0-0.8 0-0.6 0-1.1 0-0.6 0.1-1.2 0.1-0.5 0-0.8 0v-0.1-0.5l0.2-0.2q0.6 0 1.2 0 0.5-0.1 0.8-0.4 0.3-0.3 0.4-0.7 0.1-0.4 0.2-1.1 0-0.6 0.1-1.2 0-0.6 0-2v-4.6q0-0.7 0-1.3 0-0.5 0-0.9 0-0.5 0-0.8-0.1-0.3-0.1-0.7-0.1-0.4-0.2-0.7-0.2-0.3-0.3-0.5-0.4-0.4-0.9-0.5-0.6-0.1-1.2-0.1l-0.1-0.1v-0.6l0.1-0.1h0.7q0.6 0 1.6 0 1 0 1.7-0.1l1.3-0.2 0.2 0.3q-0.1 0.2-0.1 0.6-0.1 0.3-0.1 0.8 0 0.4 0 0.8 0 0.4 0 0.6 0 0.3-0.1 0.6 0 0.3 0 0.7 0 0.3 0 0.9 0 0.5 0 1.3v4.2q0 0.8 0 1.3 0 0.5 0 0.9 0.1 0.4 0.1 0.7 0 0.3 0 0.7 0.1 0.8 0.2 1.2 0.1 0.3 0.4 0.6 0.3 0.3 0.8 0.4 0.6 0 1.1 0l0.2 0.2 0.1 0.5zm-6.3-23.7q0-0.7 0.5-1.3 0.5-0.5 1.3-0.5 0.7 0 1.2 0.5 0.6 0.6 0.6 1.3 0 0.8-0.6 1.3-0.5 0.5-1.2 0.5-0.8 0-1.3-0.5-0.5-0.5-0.5-1.3z"/><path class="b" d="m437.8 144.8q1-1.7 2.5-2.7 1.6-1.1 3.8-1.1 1.1 0 2.1 0.3 1.1 0.3 1.9 0.9 0.9 0.6 1.5 1.6 0.6 1 0.8 2.4 0.1 0.9 0.1 2 0 1.1 0 2.2 0 1.3 0 2.7 0 1.3 0 2.7 0.1 0.8 0.2 1.2 0.1 0.4 0.4 0.6 0.3 0.3 0.9 0.4 0.6 0 1.2 0l0.1 0.2v0.5 0.1q-0.7 0-1.5-0.1-0.7 0-1.5 0-1.4 0-2.6 0.1l-0.2-0.4q0.1-0.5 0.2-1.2 0.1-0.8 0.1-1.4 0.1-1.6 0.1-3.1 0.1-1.5 0.1-2.5 0-0.9-0.1-1.9 0-1-0.2-1.7-0.4-1.8-1.6-2.6-1.1-0.9-2.6-0.9-1.3 0-2.3 0.5-1.1 0.6-1.8 1.3-0.8 0.8-1.2 1.6-0.4 0.9-0.4 1.5v4.2q0 0.8 0 1.3 0 0.5 0 0.9 0 0.4 0 0.7 0.1 0.3 0.1 0.7 0.1 0.8 0.2 1.2 0.1 0.3 0.4 0.6 0.3 0.3 0.8 0.4 0.5 0 1.1 0l0.2 0.2 0.1 0.5-0.1 0.1q-0.3 0-0.8 0-0.5 0-1.1-0.1-0.6 0-1.1 0-0.6 0-0.8 0h-0.5q-0.3 0-0.8 0-0.6 0-1.2 0-0.5 0.1-1.1 0.1-0.5 0-0.8 0v-0.1-0.5l0.2-0.2q0.6 0 1.1 0 0.6-0.1 0.9-0.4 0.3-0.3 0.4-0.7 0.1-0.4 0.2-1.1 0-0.6 0.1-1.2 0-0.6 0-2v-4.6q0-0.7 0-1.3 0-0.5 0-0.9 0-0.5-0.1-0.8 0-0.3 0-0.7-0.1-0.4-0.3-0.7-0.1-0.3-0.2-0.5-0.4-0.4-0.9-0.5-0.6-0.1-1.2-0.1l-0.1-0.1v-0.6l0.1-0.1h0.7q0.6 0 1.6 0 1 0 1.7-0.1l1.3-0.2 0.2 0.3q-0.2 0.5-0.3 1.4 0 0.8-0.1 1.6z"/><path fill-rule="evenodd" class="b" d="m459.5 153.6q-2-0.7-2.9-2.3-0.9-1.6-0.9-3.6 0-1.3 0.5-2.6 0.5-1.2 1.4-2.1 0.9-0.9 2.2-1.5 1.3-0.5 2.9-0.5 1 0 1.9 0.2 1 0.2 1.7 0.5 1.6 0 2.9-0.2 1.4-0.1 2.6-0.4l0.2 0.1-0.3 2.1-0.2 0.2-3.4-0.2v0.1q1 0.8 1.4 2.1 0.5 1.2 0.5 2.4 0 1.2-0.5 2.4-0.5 1.1-1.4 1.9-0.9 0.9-2.2 1.4-1.4 0.5-3.1 0.5-0.3 0-0.7-0.1-0.5 0-0.8 0-0.6 0.3-0.9 0.8-0.4 0.4-0.3 0.7-0.1 0.4 0.5 0.6 0.4 0.3 1.6 0.4l3.6 0.4q1.2 0.1 2.3 0.5 1 0.4 1.8 1 0.8 0.6 1.3 1.5 0.4 0.9 0.4 2 0 1.1-0.5 2.2-0.4 1.1-1.4 2-1 0.8-2.7 1.3-1.7 0.5-3.9 0.5-2.1 0-3.5-0.4-1.5-0.4-2.5-1.2-1-0.7-1.5-1.6-0.4-0.9-0.4-1.9 0-1.5 1-2.8 1-1.2 2.6-1.6v-0.2q-0.8-0.3-1.2-0.8-0.5-0.5-0.5-1.2 0-1 0.7-1.6 0.8-0.6 1.7-0.8zm3.4-1.2q1 0 1.8-0.3 0.8-0.4 1.4-1 0.5-0.7 0.8-1.5 0.3-0.8 0.3-1.7 0-1-0.3-1.9-0.3-0.9-0.8-1.7-0.6-0.7-1.5-1.2-0.8-0.5-2-0.5-1 0-1.8 0.5-0.8 0.4-1.4 1.1-0.5 0.7-0.8 1.6-0.2 0.9-0.2 1.7 0 0.9 0.2 1.8 0.3 0.9 0.9 1.6 0.6 0.7 1.4 1.1 0.9 0.4 2 0.4zm-1.2 6.4q-1.1 0-1.8 0.4-0.8 0.3-1.4 0.8-0.5 0.5-0.8 1.1-0.2 0.7-0.2 1.2 0 1.5 1.5 2.4 1.6 0.9 4.3 0.9 1.2 0 2.3-0.3 1-0.2 1.8-0.6 0.7-0.4 1.2-1 0.4-0.6 0.4-1.5 0-0.9-0.4-1.4-0.4-0.6-1.1-0.9-0.7-0.4-1.6-0.6-0.9-0.1-1.7-0.2z"/><path fill-rule="evenodd" class="b" d="m495.9 133.9q2.9 0 5.2 1 2.3 1 3.8 2.8 1.6 1.7 2.4 4 0.8 2.2 0.8 4.7 0 2.5-0.8 4.8-0.8 2.3-2.4 4-1.5 1.8-3.8 2.8-2.4 1.1-5.4 1.1-3 0-5.2-1-2.2-1-3.8-2.7-1.5-1.7-2.2-4-0.8-2.2-0.8-4.7 0-2.6 0.9-5 0.8-2.3 2.3-4 1.6-1.8 3.9-2.8 2.3-1 5.1-1zm0 23.2q2.2 0 4-0.8 1.7-0.8 2.9-2.3 1.2-1.5 1.8-3.4 0.6-1.9 0.6-4.1 0-2.3-0.6-4.2-0.7-1.9-1.9-3.4-1.2-1.4-3-2.2-1.8-0.8-4-0.8-2.2 0-3.9 0.8-1.7 0.8-2.8 2.2-1.2 1.4-1.8 3.3-0.6 2-0.6 4.2 0 2.5 0.7 4.5 0.7 2 1.9 3.4 1.2 1.3 2.9 2.1 1.7 0.7 3.8 0.7z"/><path class="b" d="m516.8 144.8q0.9-1.7 2.5-2.7 1.5-1.1 3.8-1.1 1 0 2 0.3 1.1 0.3 2 0.9 0.8 0.6 1.4 1.6 0.6 1 0.8 2.4 0.1 0.9 0.1 2 0 1.1 0 2.2 0 1.3 0 2.7 0.1 1.3 0.1 2.7 0.1 0.8 0.2 1.2 0.1 0.4 0.3 0.6 0.3 0.3 0.9 0.4 0.6 0 1.2 0l0.1 0.2 0.1 0.5-0.1 0.1q-0.6 0-1.4-0.1-0.8 0-1.5 0-1.5 0-2.6 0.1l-0.3-0.4q0.2-0.5 0.2-1.2 0.1-0.8 0.2-1.4 0-1.6 0.1-3.1 0-1.5 0-2.5 0-0.9-0.1-1.9 0-1-0.2-1.7-0.4-1.8-1.5-2.6-1.2-0.9-2.7-0.9-1.2 0-2.3 0.5-1.1 0.6-1.8 1.3-0.8 0.8-1.2 1.6-0.4 0.9-0.4 1.5v4.2q0 0.8 0 1.3 0 0.5 0 0.9 0 0.4 0.1 0.7 0 0.3 0 0.7 0.1 0.8 0.2 1.2 0.1 0.3 0.4 0.6 0.3 0.3 0.8 0.4 0.6 0 1.1 0l0.2 0.2 0.1 0.5-0.1 0.1q-0.2 0-0.8 0-0.5 0-1.1-0.1-0.6 0-1.1 0-0.5 0-0.8 0h-0.5q-0.3 0-0.8 0-0.6 0-1.1 0-0.6 0.1-1.1 0.1-0.6 0-0.8 0l-0.1-0.1 0.1-0.5 0.1-0.2q0.6 0 1.2 0 0.6-0.1 0.9-0.4 0.2-0.3 0.3-0.7 0.1-0.4 0.2-1.1 0.1-0.6 0.1-1.2 0-0.6 0-2v-4.6q0-0.7 0-1.3 0-0.5 0-0.9 0-0.5 0-0.8 0-0.3-0.1-0.7-0.1-0.4-0.2-0.7-0.2-0.3-0.3-0.5-0.3-0.4-0.9-0.5-0.6-0.1-1.1-0.1l-0.2-0.1v-0.6l0.2-0.1h0.6q0.6 0 1.6 0 1 0 1.7-0.1l1.3-0.2 0.2 0.3q-0.2 0.5-0.2 1.4-0.1 0.8-0.2 1.6z"/><path class="b" d="m548.7 145.5l-0.1-0.1q0-0.8-0.5-1.4-0.5-0.5-1.2-0.8-0.7-0.3-1.5-0.4-0.8-0.1-1.4-0.1-1.8 0-3 0.6-1.2 0.6-2.1 1.6-0.8 1-1.2 2.4-0.4 1.3-0.4 2.7 0 1.4 0.5 2.7 0.4 1.3 1.3 2.3 0.9 1 2.2 1.6 1.4 0.6 3.2 0.6 1.3 0 2.8-0.4 1.6-0.4 2.7-1l0.4 0.4-0.6 1q-0.4 0.3-1.1 0.7-0.6 0.3-1.4 0.6-0.8 0.2-1.8 0.4-0.9 0.2-1.9 0.2-1.8 0-3.4-0.6-1.7-0.7-3-1.9-1.2-1.1-2-2.8-0.7-1.7-0.7-3.7 0-2 0.7-3.7 0.8-1.7 2.1-2.9 1.3-1.2 3-1.8 1.8-0.7 3.7-0.7 1.8 0 3.4 0.4 1.6 0.5 2.4 0.9l0.1 0.4-0.4 2.8z"/><path fill-rule="evenodd" class="b" d="m562.6 141q2.2 0 3.9 0.8 1.8 0.7 2.9 2 1.2 1.3 1.8 3 0.6 1.6 0.6 3.4 0 1.7-0.5 3.3-0.6 1.6-1.7 2.9-1.2 1.2-2.9 2-1.7 0.7-4 0.7-2.3 0-4.1-0.8-1.7-0.8-2.9-2-1.1-1.3-1.7-2.9-0.5-1.6-0.5-3.4 0-1.8 0.6-3.4 0.6-1.7 1.8-2.9 1.2-1.3 2.9-2 1.7-0.7 3.8-0.7zm0.1 16.6q1.5 0 2.7-0.6 1.2-0.6 2-1.7 0.8-1 1.2-2.3 0.4-1.4 0.4-2.8 0-1.3-0.5-2.7-0.4-1.4-1.2-2.5-0.8-1.1-2-1.7-1.2-0.8-2.8-0.8-1.6 0-2.8 0.7-1.2 0.7-1.9 1.7-0.8 1-1.2 2.4-0.3 1.3-0.3 2.7 0 1.3 0.4 2.7 0.4 1.4 1.2 2.5 0.9 1.1 2.1 1.8 1.2 0.6 2.7 0.6z"/><path class="b" d="m574.5 131.6l0.1-0.1h0.7q0.6 0 1.6-0.1 1 0 1.7-0.1l1.3-0.2 0.3 0.4q-0.1 0.1-0.2 0.5 0 0.4 0 0.8-0.1 0.5-0.1 0.9 0 0.4 0 0.6 0 0.6-0.1 1.1 0 0.6 0 1.3 0 0.7 0 1.7 0 1 0 2.6v8.1q0 1.5 0 2.6 0 1 0 1.7 0 0.7 0.1 1.2 0 0.5 0 1.2 0.1 0.8 0.2 1.2 0.1 0.3 0.4 0.6 0.3 0.3 0.8 0.4 0.6 0 1.1 0l0.2 0.2 0.1 0.5-0.1 0.1q-0.3 0-0.8 0-0.5 0-1.1-0.1-0.6 0-1.1 0-0.5 0-0.8 0h-0.5q-0.3 0-0.8 0-0.6 0-1.1 0-0.6 0.1-1.2 0.1-0.5 0-0.7 0l-0.1-0.1 0.1-0.5 0.1-0.2q0.6 0 1.2 0 0.5-0.1 0.8-0.4 0.3-0.3 0.4-0.7 0.1-0.4 0.2-1.1 0-0.5 0.1-1 0-0.5 0-1.1 0-0.7 0-1.6 0-0.8 0-2.1v-9q0-1.5 0-2.6 0-1 0-1.8 0-0.8 0-1.4-0.1-0.6-0.1-1.2 0-0.4-0.2-0.7-0.2-0.3-0.3-0.4-0.3-0.4-0.9-0.6-0.6-0.1-1.2-0.1l-0.1-0.1z"/><path fill-rule="evenodd" class="b" d="m594.4 141q2.2 0 3.9 0.8 1.8 0.7 2.9 2 1.2 1.3 1.8 3 0.6 1.6 0.6 3.4 0 1.7-0.5 3.3-0.6 1.6-1.7 2.9-1.2 1.2-2.9 2-1.7 0.7-4 0.7-2.3 0-4.1-0.8-1.8-0.8-2.9-2-1.1-1.3-1.7-2.9-0.5-1.6-0.5-3.4 0-1.8 0.6-3.4 0.6-1.7 1.8-2.9 1.2-1.3 2.9-2 1.7-0.7 3.8-0.7zm0.1 16.6q1.5 0 2.7-0.6 1.2-0.6 2-1.7 0.8-1 1.2-2.3 0.4-1.4 0.4-2.8 0-1.3-0.5-2.7-0.4-1.4-1.2-2.5-0.8-1.1-2-1.7-1.2-0.8-2.8-0.8-1.6 0-2.8 0.7-1.2 0.7-1.9 1.7-0.8 1-1.2 2.4-0.3 1.3-0.3 2.7 0 1.3 0.4 2.7 0.4 1.4 1.2 2.5 0.9 1.1 2 1.8 1.2 0.6 2.8 0.6z"/><path fill-rule="evenodd" class="b" d="m610.9 153.6q-2-0.7-2.9-2.3-0.9-1.6-0.9-3.6 0-1.3 0.5-2.6 0.5-1.2 1.4-2.1 0.9-0.9 2.2-1.5 1.3-0.5 2.9-0.5 1 0 2 0.2 0.9 0.2 1.6 0.5 1.6 0 2.9-0.2 1.4-0.1 2.6-0.4l0.2 0.1-0.3 2.1-0.2 0.2-3.4-0.2v0.1q1 0.8 1.4 2.1 0.5 1.2 0.5 2.4 0 1.2-0.5 2.4-0.5 1.1-1.4 1.9-0.8 0.9-2.2 1.4-1.3 0.5-3.1 0.5-0.3 0-0.7-0.1-0.5 0-0.8 0-0.6 0.3-0.9 0.8-0.3 0.4-0.3 0.7 0 0.4 0.5 0.6 0.5 0.3 1.6 0.4l3.6 0.4q1.2 0.1 2.3 0.5 1 0.4 1.8 1 0.9 0.6 1.3 1.5 0.4 0.9 0.4 2 0 1.1-0.4 2.2-0.5 1.1-1.5 2-1 0.8-2.7 1.3-1.7 0.5-3.9 0.5-2 0-3.5-0.4-1.5-0.4-2.5-1.2-1-0.7-1.4-1.6-0.5-0.9-0.5-1.9 0-1.5 1-2.8 1-1.2 2.6-1.6l0.1-0.2q-0.8-0.3-1.3-0.8-0.5-0.5-0.5-1.2 0-1 0.8-1.6 0.7-0.6 1.6-0.8zm3.4-1.2q1 0 1.8-0.3 0.8-0.4 1.4-1 0.6-0.7 0.9-1.5 0.3-0.8 0.3-1.7 0-1-0.3-1.9-0.3-0.9-0.9-1.7-0.6-0.7-1.5-1.2-0.8-0.5-1.9-0.5-1.1 0-1.9 0.5-0.8 0.4-1.4 1.1-0.5 0.7-0.8 1.6-0.2 0.9-0.2 1.7 0 0.9 0.3 1.8 0.2 0.9 0.8 1.6 0.6 0.7 1.4 1.1 0.9 0.4 2 0.4zm-1.2 6.4q-1 0-1.8 0.4-0.8 0.3-1.3 0.8-0.6 0.5-0.9 1.1-0.2 0.7-0.2 1.2 0 1.5 1.6 2.4 1.5 0.9 4.2 0.9 1.2 0 2.3-0.3 1-0.2 1.8-0.6 0.7-0.4 1.2-1 0.4-0.6 0.4-1.5 0-0.9-0.4-1.4-0.4-0.6-1.1-0.9-0.7-0.4-1.6-0.6-0.8-0.1-1.7-0.2z"/><path class="b" d="m625.7 167.2q0.5 0 1 0 0.5-0.1 0.9-0.2 0.4-0.1 0.9-0.4 0.4-0.3 0.9-0.8 0.7-0.8 1.3-1.6 0.5-0.9 0.8-1.7l1.2-3-2.6-6.8q-0.1-0.3-0.5-1.2-0.3-0.9-0.8-2-0.4-1.1-0.9-2.2-0.4-1.2-0.8-2.1-0.4-0.9-0.7-1.4-0.3-0.6-0.8-0.9-0.5-0.4-1.2-0.5l-0.3-0.1v-0.6l0.2-0.1q0.6 0.1 1.3 0.1 0.7 0.1 1.3 0.1h1.5q0.6 0 1.4-0.1 0.9 0 1.6-0.1l0.1 0.1v0.5l-0.1 0.1q-0.8 0.1-1.4 0.5-0.5 0.3-0.5 1 0 0.4 0.3 1.6 0.4 1.1 0.9 2.4 0.4 1.3 0.8 2.4 0.4 1.1 0.6 1.4l1.8 4.9 1.8-4.3q0.3-0.6 0.7-1.7 0.4-1.1 0.9-2.3 0.4-1.2 0.7-2.4 0.4-1.2 0.4-2 0-0.8-0.6-1.1-0.6-0.3-1.4-0.4l-0.1-0.1v-0.5l0.1-0.1q1.5 0.2 2.8 0.2h1.5q0.6 0 1.2-0.1 0.6 0 1.3-0.1l0.1 0.1v0.6l-0.2 0.1q-0.6 0.1-1 0.4-0.3 0.3-0.8 1-0.3 0.6-0.7 1.5-0.4 0.9-0.9 1.9-0.4 1.1-0.8 2.1-0.5 1.1-0.8 2.1-0.4 0.9-0.6 1.6-0.3 0.7-0.4 0.9l-3.6 9.1q-1 2.4-2.6 3.6-1.7 1.2-3.6 1.7-0.4 0-0.7 0.1-0.3 0-0.7 0l-0.3-0.1-0.1-0.9z"/><path class="b" d="m671.9 158.7l-4.4-11.3q-0.4 1-0.8 2.1-0.4 1-0.7 1.9-0.4 0.9-0.6 1.6-0.3 0.7-0.4 0.9l-1.9 4.8-2.3 0.2-0.3-0.2-2.3-6q-0.1-0.3-0.4-1.2-0.4-0.8-0.8-1.9-0.5-1.2-0.9-2.3-0.5-1.2-0.9-2.1-0.4-0.9-0.7-1.4-0.3-0.6-0.8-0.9-0.5-0.4-1.2-0.5l-0.3-0.1v-0.6l0.2-0.1q0.6 0.1 1.3 0.1 0.7 0.1 1.3 0.1h1.5q0.6 0 1.4-0.1 0.9 0 1.6-0.1l0.1 0.1v0.5l-0.1 0.1q-0.8 0.1-1.4 0.5-0.5 0.3-0.5 1 0 0.3 0.2 0.9 0.1 0.6 0.4 1.4 0.3 0.8 0.6 1.7 0.3 0.9 0.5 1.7 0.3 0.7 0.6 1.3 0.2 0.6 0.3 0.8l1.8 4.9 1.8-4.3q0.2-0.6 0.6-1.4 0.4-0.9 0.8-2 0.4-1 0.7-2.1 0.4-1.1 0.5-2-0.2-0.7-0.6-1.4-0.3-0.7-1.5-0.9l-0.2-0.1v-0.6l0.1-0.1q0.7 0.1 1.2 0.1 0.5 0.1 1.1 0.1h1.5q1.2 0 2.6-0.2l0.2 0.1v0.5l-0.2 0.1q-1.6 0.2-1.6 1.5 0 0.3 0.2 0.9 0.1 0.6 0.4 1.4 0.3 0.8 0.6 1.7 0.3 0.9 0.6 1.7 0.2 0.7 0.5 1.3 0.2 0.6 0.3 0.8l1.8 4.9 1.8-4.3q0.2-0.6 0.7-1.7 0.4-1.1 0.9-2.3 0.4-1.2 0.8-2.4 0.3-1.2 0.3-2 0-0.8-0.6-1.1-0.6-0.3-1.4-0.4l-0.1-0.1v-0.5l0.1-0.1q1.5 0.2 2.8 0.2h1.5q0.6 0 1.2-0.1 0.6 0 1.3-0.1l0.1 0.1v0.6l-0.2 0.1q-0.6 0.1-1.1 0.4-0.5 0.3-0.9 1-0.3 0.6-0.8 1.5-0.4 0.9-0.8 1.9-0.4 1.1-0.8 2.1-0.4 1.1-0.8 2.1-0.3 0.9-0.6 1.6-0.3 0.7-0.4 0.9l-1.9 4.8-2.3 0.2z"/><path class="b" d="m692.2 158.8q-0.3 0-0.8 0-0.5 0-1.1-0.1-0.6 0-1.1 0-0.6 0-0.8 0h-0.5q-0.3 0-0.8 0-0.6 0-1.2 0-0.5 0.1-1.1 0.1-0.5 0-0.8 0v-0.1-0.5l0.2-0.2q0.6 0 1.1 0 0.6-0.1 0.9-0.4 0.3-0.3 0.4-0.7 0.1-0.4 0.2-1.1 0-0.6 0.1-1.2 0-0.6 0-2v-4.6q0-0.7 0-1.3 0-0.5 0-0.9 0-0.5-0.1-0.8 0-0.3 0-0.7-0.1-0.4-0.3-0.7-0.1-0.3-0.2-0.5-0.4-0.4-0.9-0.5-0.6-0.1-1.2-0.1l-0.1-0.1v-0.6l0.1-0.1h0.7q0.6 0 1.6 0 0.9 0 1.7-0.1l1.3-0.2 0.2 0.3q-0.1 0.2-0.2 0.6 0 0.3 0 0.8 0 0.4 0 0.8-0.1 0.4-0.1 0.6 0 0.3 0 0.6 0 0.3 0 0.7 0 0.3 0 0.9 0 0.5 0 1.3v4.2q0 0.8 0 1.3 0 0.5 0 0.9 0 0.4 0.1 0.7 0 0.3 0 0.7 0.1 0.8 0.2 1.2 0.1 0.3 0.4 0.6 0.3 0.3 0.8 0.4 0.5 0 1.1 0l0.2 0.2 0.1 0.5zm-6.3-23.7q0-0.7 0.5-1.3 0.5-0.5 1.2-0.5 0.8 0 1.3 0.5 0.6 0.6 0.6 1.3 0 0.8-0.6 1.3-0.5 0.5-1.3 0.5-0.7 0-1.2-0.5-0.5-0.5-0.5-1.3z"/><path class="b" d="m704.1 143.3h-4.8q0 2.4 0 4.5-0.1 2-0.1 3.6 0 1.5 0 2.4 0 1 0 1.2 0 1.5 0.6 1.9 0.5 0.5 1.2 0.5 0.7 0 1.5-0.2 0.9-0.3 1.4-0.6l0.3 0.3-0.3 1q-0.9 0.6-1.9 0.9-1.1 0.3-1.9 0.3-1.9 0-2.7-1-0.8-1.1-0.8-2.7 0-0.4 0.1-1.4 0-1 0-2.6 0.1-1.6 0.1-3.6 0-2.1 0-4.5h-2.6l-0.2-0.2v-0.7l0.2-0.1 2.6-0.6q0-1.3 0-2.6-0.1-1.4-0.1-2.7l0.2-0.2 0.5-0.1q0.3 0 1-0.1 0.7-0.1 0.9-0.3l0.4 0.2q-0.1 0.5-0.2 1.2-0.1 0.7-0.2 1.5 0 0.7 0 1.6 0 0.8 0 1.5l4.8-0.2 0.2 0.2v1.4z"/><path class="b" d="m721.1 158.4q0.1-0.5 0.2-1.2 0.1-0.8 0.1-1.4 0.1-1.6 0.1-3.1 0.1-1.5 0.1-2.5 0-0.9-0.1-1.9-0.1-1-0.2-1.7-0.4-1.8-1.6-2.6-1.1-0.9-2.7-0.9-1.2 0-2.3 0.6-1 0.5-1.8 1.3-0.7 0.7-1.1 1.6-0.5 0.8-0.5 1.4 0 2 0 3.2 0 1.2 0.1 2 0 0.8 0 1.4 0 0.5 0.1 1.2 0.1 0.8 0.2 1.2 0 0.3 0.3 0.6 0.4 0.3 0.9 0.4 0.5 0 1.1 0l0.2 0.2v0.5 0.1q-0.3 0-0.8 0-0.5 0-1.1-0.1-0.6 0-1.1 0-0.6 0-0.8 0h-0.5q-0.3 0-0.9 0-0.5 0-1.1 0-0.5 0.1-1.1 0.1-0.5 0-0.8 0v-0.1-0.5l0.2-0.2q0.6 0 1.1 0 0.6-0.1 0.9-0.4 0.3-0.3 0.4-0.7 0.1-0.4 0.2-1.1 0-0.5 0-1 0-0.5 0.1-1.1 0-0.7 0-1.6 0-0.8 0-2.1v-9q0-1.5 0-2.6 0-1 0-1.8-0.1-0.8-0.1-1.4 0-0.6 0-1.2-0.1-0.4-0.2-0.7-0.2-0.3-0.3-0.4-0.4-0.4-0.9-0.6-0.6-0.1-1.2-0.1l-0.2-0.1v-0.5l0.2-0.1h0.7q0.6 0 1.6-0.1 0.9 0 1.7-0.1l1.2-0.2 0.3 0.4q-0.1 0.1-0.1 0.5-0.1 0.4-0.1 0.8-0.1 0.5-0.1 0.9 0 0.4 0 0.6 0 1.2 0 2.9-0.1 1.6-0.1 3.8 0 1.5 0 2.4 0 0.9-0.1 1.4l0.1 0.1q1-1.6 2.5-2.8 1.6-1.1 3.9-1.1 1.1 0 2.1 0.3 1.1 0.3 1.9 0.9 0.9 0.6 1.5 1.6 0.6 1 0.7 2.3 0.1 1 0.2 2.2 0 1.3 0 2.1v5.2q0 0.9 0.1 1.4 0.2 0.4 0.5 0.6 0.3 0.3 0.9 0.4 0.5 0 1.1 0l0.1 0.2 0.1 0.5-0.1 0.1q-0.6 0-1.4-0.1-0.8 0-1.5 0-1.4 0-2.6 0.1z"/><path fill-rule="evenodd" class="b" d="m750.3 133.9l6.1 16.9q0.4 1.1 0.6 1.9 0.3 0.7 0.5 1.3 0.2 0.5 0.4 0.8 0.1 0.4 0.2 0.7 0.5 0.9 0.9 1.4 0.4 0.5 0.9 0.7 0.4 0.3 0.9 0.3 0.4 0 0.9 0l0.2 0.2 0.1 0.7v0.1q-0.3 0-0.8 0-0.6-0.1-1.1-0.1-0.6 0-1.1-0.1-0.5 0-0.7 0h-1.3q-0.2 0-0.8 0-0.6 0.1-1.3 0.1-0.6 0-1.2 0.1-0.6 0-0.9 0v-0.1l0.1-0.7 0.1-0.2q1.1 0 1.7-0.2 0.6-0.2 0.6-1.3 0-0.9-0.6-2.4-0.6-1.6-1.4-3.9l-0.7-1.8h-8.3l-0.6 1.8q-0.9 2.3-1.5 3.9-0.6 1.5-0.6 2.4 0 1.1 0.6 1.3 0.6 0.2 1.7 0.2l0.2 0.2 0.1 0.7-0.1 0.1q-0.2 0-0.8 0-0.5-0.1-1.2-0.1-0.6 0-1.1-0.1-0.6 0-0.9 0h-0.7q-0.2 0-0.7 0-0.6 0.1-1.1 0.1-0.6 0-1.1 0.1-0.5 0-0.7 0l-0.1-0.1 0.1-0.7 0.2-0.2q0.5 0 0.9 0 0.5 0 0.9-0.3 0.4-0.2 0.9-0.7 0.4-0.5 0.8-1.4 0.2-0.2 0.3-0.5 0-0.2 0.2-0.7 0.3-0.5 0.6-1.3 0.3-0.8 0.8-2.1 0.5-1.3 1.2-3.1 0.8-1.9 1.8-4.5 0.5-1.3 1-2.6 0.5-1.3 1-2.4 0.4-1.2 0.8-2 0.3-0.9 0.5-1.3l2.2-1.1zm-5.4 12.8h7.1l-3.5-9.6z"/><path class="b" d="m772.4 134.2l-0.1 0.7-0.2 0.2q-0.6 0-1.1 0-0.5 0.1-0.9 0.3-0.3 0.3-0.6 0.7-0.2 0.4-0.3 1.5 0 0.5 0 0.9-0.1 0.5-0.1 1.1 0 0.6 0 1.4 0 0.9 0 2.2v6.9q0 1.3 0 2.2 0 0.8 0 1.4 0 0.5 0.1 0.9 0 0.4 0 0.9 0.1 1 0.3 1.4 0.3 0.4 0.6 0.7 0.4 0.2 0.9 0.3 0.5 0 1.1 0l0.2 0.2 0.1 0.7-0.1 0.1q-0.3 0-0.8 0-0.6-0.1-1.3-0.1-0.6 0-1.2-0.1-0.6 0-0.9 0h-0.7q-0.2 0-0.8 0-0.6 0.1-1.3 0.1-0.6 0-1.2 0.1-0.6 0-0.8 0l-0.1-0.1 0.1-0.7 0.2-0.2q0.6 0 1.1 0 0.5-0.1 0.9-0.3 0.2-0.3 0.5-0.7 0.3-0.4 0.4-1.4 0-0.3 0-0.7 0-0.3 0-0.8 0.1-0.6 0.1-1.3 0-0.8 0-1.9v-7.5q0-1.3 0-2.2 0-0.9-0.1-1.6 0-0.6 0-1 0-0.5-0.1-0.9 0-1-0.3-1.5-0.3-0.4-0.5-0.7-0.4-0.2-0.9-0.3-0.5 0-1.1 0l-0.2-0.2-0.1-0.7 0.1-0.1q0.2 0 0.8 0 0.6 0.1 1.2 0.1 0.7 0 1.3 0.1 0.6 0 0.8 0h0.7q0.3 0 0.9 0 0.6-0.1 1.2-0.1 0.7 0 1.3-0.1 0.5 0 0.8 0z"/><path class="b" d="m122.5 37.4c-2.6 0-5.2 1.2-7.2 3-1.2 1-2.6 1.8-4.2 1.9-2.7 0.3-5.5 0.6-8.2 0.5q-18.4 0-36.7 0.1c-1.7 0.1-3.4 0.1-5 0.1q-3 0.2-6 0.6c-0.3 0-0.8 0.1-1.1 0.2-4.1 0.6-8 2-11.5 4.2-6.6 4.2-11.5 11.1-13.3 18.7-0.1 0.5-0.2 1-0.3 1.5q-0.2 1-0.3 1.9c-0.4 2.9-0.3 5.8 0.3 8.6 0 0.6 0.2 1.2 0.3 1.7 1.4 5.6 4.2 10.8 8.2 15 1.1 1.1 2.3 2.2 3.4 3.1 2.1 1.7 4.4 3.1 6.6 4.5 5.8 3.7 11.7 7.2 17.6 10.8 14.4 8.7 28.7 17.3 43.1 26 4.3 2.7 8 6.4 10.3 11 2.2 4.4 3.1 9.4 2.4 14.2-0.9 6.1-4.5 11.7-9.7 15-2.8 1.9-6 3-9.3 3.6-2.9 0.5-6 0.5-8.9 0.3-4.7-0.3-9.3-0.2-14-0.3-7.8 0-15.7-0.1-23.5 0.1-2.8 0.1-5.7 0.2-8.5 0.4-1.8 0.1-3.7-0.6-5-1.9-0.8-0.8-1.4-1.7-2.3-2.4-2.7-2.2-6.6-2.9-9.9-1.6-2.6 1-4.5 3.3-5.3 6-1 3.2-0.2 6.9 2.1 9.4 1.5 1.7 3.7 2.6 5.9 2.9 2.1 0.4 4.3-0.2 6.1-1.2 1.3-0.7 2.4-1.6 3.7-2.1 2.8-1.3 5.8-1.8 8.8-1.7q19.2 0.1 38.4-0.1c3.1 0 6.2 0 9.3-0.3 0.2 0 0.7 0 1-0.1 6.2-0.6 12.5-2.4 17.5-6.3 6.4-4.8 10.6-12.4 11.3-20.3 0.3-2.8 0.1-5.5-0.5-8.1 0-0.2-0.1-0.5-0.1-0.8-1.1-4.6-3.2-9.1-6.2-12.8q-1.7-2.1-3.7-3.9c-0.1-0.2-0.4-0.4-0.6-0.6-3.2-2.8-6.9-4.9-10.5-7.1-19-11.6-38.1-23.2-57.1-34.7-4.3-2.8-8.2-6.3-10.7-10.8-3.1-5.4-4.1-12-2.5-18 2-7.1 7.4-13.2 14.4-15.7 3.6-1.3 7.5-1.7 11.4-1.7 3.1 0.1 6.2 0.1 9.4 0.2 11 0.1 22.1 0.3 33.2-0.5 2.2-0.2 4.5-0.2 6.7 0.6 2 0.7 3.7 1.9 5.2 3.5 0.6 0.6 1.2 1.2 2 1.5 2.5 1.4 5.6 1.3 8.2 0.1 1.9-0.8 3.4-2.2 4.3-4 1.9-3.8 1.2-8.7-1.8-11.6-1.7-1.6-3.9-2.5-6.1-2.6-0.3-0.1-0.7-0.1-1.1 0z"/><path class="b" d="m60.6 63.9c-2.6 0.2-5.3 1.1-7.1 3.2-1.4 1.7-2.2 4-2.4 6.2-0.2 2.7 0.8 5.3 2.5 7.4 0.9 1.1 2.2 2 3.6 2.6 5 2 9.8 4.8 14.4 7.6 15.9 9.7 31.8 19.2 47.6 28.8 7.3 4.6 13.9 10.4 18.6 17.6 5.2 8 7.8 17.5 7.4 26.9-0.3 8.3-3 16.4-7.6 23.3-4.1 6.1-9.6 11.2-16.1 14.5-6.2 3.1-13.2 4.6-20.1 4.9-5.3 0.2-10.6 0-15.9 0.1-1.1 0.1-2.3 0.4-2.9 1.3-0.6 1.1-0.6 2.5-0.3 3.7 0.5 1.2 1.8 1.8 3 1.9 1.6 0.3 3.3 0.1 4.9 0.2 3.6 0 7.3 0 10.9-0.1 0.5 0 1.1-0.1 1.6-0.1q4.4-0.3 8.8-1.2c0.2 0 0.6-0.1 0.8-0.1 1.6-0.4 3.3-0.8 4.8-1.3 4-1.2 7.7-2.9 11.2-5.1 0.5-0.3 1.1-0.6 1.6-1 0.8-0.5 1.5-1 2.2-1.6q2.5-1.8 4.6-4c0.2-0.1 0.4-0.4 0.6-0.6 0.2-0.2 0.4-0.4 0.7-0.6 4-4.3 7.4-9.3 10-14.6 1.4-2.9 2.4-5.9 3.1-8.9 1.1-4.1 1.5-8.4 1.4-12.7-0.1-0.8-0.1-1.7-0.1-2.5-0.3-3.6-0.8-7.2-1.7-10.7-1.3-4.8-3.2-9.4-5.7-13.6q-1.2-1.9-2.5-3.7c-3.5-4.9-7.9-9.2-12.7-12.8-11.4-8.6-24-15.4-36-22.9-5.2-3.2-10.3-6.5-15.5-9.7-1.9-1.2-3.9-2.3-5.8-3.6-1.5-1.1-2.4-3-2.2-4.9 0.1-1.1 0.4-2.1 0.3-3.2-0.2-3.1-1.5-6.3-3.9-8.3-1.7-1.5-3.9-2.5-6.1-2.4z"/><path class="b" d="m60.1 19.8c-2.7 0-5.6 0.2-8.3 0.6-1.1 0.2-2 0.3-3.1 0.5-0.7 0.2-1.4 0.3-2.1 0.5-0.6 0.1-1.2 0.3-1.9 0.5q-2.8 0.7-5.6 1.7c-0.5 0.2-1.1 0.4-1.6 0.6-5.6 2.3-10.7 5.5-15.2 9.4-2.8 2.5-5.2 5.2-7.4 8.1-0.6 0.8-1.1 1.6-1.7 2.4-3.5 5.3-6 11.1-7.3 17.3q-0.7 3.6-1 7.3c0 0.3 0 0.8 0 1-0.1 1.6-0.1 3.2 0 4.7 0.2 6.5 1.6 13 4 19 0.1 0.3 0.3 0.7 0.4 0.9 3.3 7.7 8.4 14.4 14.7 19.8 4.1 3.7 8.7 6.7 13.3 9.6 7.2 4.6 14.6 8.9 21.8 13.4 8.6 5.4 17.3 10.7 25.9 16.1 1.5 1 2.6 2.7 2.5 4.6 0 1.2-0.5 2.4-0.4 3.6 0.2 3.2 2 6.4 4.9 8 1.5 0.9 3.3 1.3 5 1.3 3-0.1 5.9-1.6 7.4-4.2 2-3.1 1.9-7.4-0.1-10.4-1.6-2.4-4.1-4.1-6.8-5-3-1-5.8-2.4-8.5-4.2q-25.6-15.5-51.1-31c-5.2-3.2-10.2-7.1-14-12-5-6.2-8.8-13.5-10.5-21.3-1.7-7.6-1.4-15.6 0.7-23.1 2.7-9.3 8.5-17.7 16.3-23.5 6.5-4.9 14.3-7.9 22.4-8.7 6.2-0.6 12.4-0.2 18.6-0.3 1.2-0.1 2.6-0.5 3.3-1.7 0.6-1 0.5-2.3 0.1-3.5-0.5-1-1.5-1.6-2.6-1.7-1.3-0.1-2.6-0.1-3.9-0.2-2.7-0.1-5.4-0.1-8.2-0.1z"/><path class="b" d="m152.5 39.8c-1.1 0-2.2 0.7-2.5 1.8-0.4 1.2-0.5 2.5-0.8 3.7-1 4.6-2.8 9.1-5.5 12.9-3.5 5.1-8.2 9.3-13.8 11.8-3.6 1.7-7.6 2.6-11.6 3-2.3 0.3-4.9 0.6-6.9 2.1-2.5 1.7-3.8 4.7-3.6 7.7 0.3 3.5 2.6 6.9 5.9 8.2 1.8 0.7 3.9 0.7 5.8 0.1 1.9-0.6 3.7-2 4.6-3.8 0.7-1.4 1-2.8 1.3-4.3 0.6-1.9 2-3.5 3.8-4.3 1.4-0.6 2.8-1.1 4.2-1.8 4.9-2.4 9.5-5.6 13.1-9.7 2.9-3.3 5.2-7 6.9-11.1 0.1-0.2 0.3-0.6 0.4-0.9 1.3-3.4 2.4-6.8 2.8-10.5 0-0.2 0-0.4 0-0.7 0.1-0.7 0.1-1.5-0.3-2.2-0.7-1.4-2.3-2.2-3.8-2z"/><path class="b" d="m40 143.6c-2.3 0.1-4.7 1-6.1 2.9-1 1.2-1.6 2.8-2 4.4 0 0.2-0.1 0.6-0.2 0.8-0.6 1.9-2.1 3.4-4 4.1-1.7 0.7-3.4 1.4-5 2.2-4 2.1-7.8 4.8-10.9 8.1q-1.6 1.6-3 3.5c-0.3 0.4-0.7 0.9-1.1 1.4-0.5 0.8-1 1.5-1.5 2.3-2.9 4.6-4.8 9.8-5.7 15.2 0 0.2-0.1 0.6-0.1 0.8-0.3 2.2 1.8 4.4 4 4.1 1.5-0.3 2.8-1.5 3.1-3.1 0.2-0.9 0.3-1.7 0.6-2.6 1-4.3 2.8-8.5 5.3-12.1 3-4.3 7-8 11.7-10.3 3.8-1.9 8.1-2.9 12.3-3.3 2.2-0.2 4.5-0.3 6.6-1.2 2.9-1.2 5-4.2 5.3-7.4 0.3-1.5 0.1-3.1-0.7-4.4-1.1-2-2.8-3.6-4.9-4.7-1-0.5-2.2-0.7-3.4-0.7q-0.1 0-0.3 0z"/><path fill-rule="evenodd" class="b" d="m56.2 204.3c2.9 0.4 5.6 2.1 7.4 4.3 2.1 2.5 3.4 5.7 3.3 8.9 0 3.4-1.4 6.6-3.7 9-1.9 2.1-4.5 3.5-7.3 3.9-2.7 0.4-5.6 0.1-8.2-1.1-0.4-0.1-0.9-0.4-1.3-0.6-2.7-1.6-4.5-4.3-5.6-7.2-0.4-1.4-0.5-2.9-0.6-4.3 0-0.4 0.1-0.8 0.1-1.1 0.1-3.3 1.5-6.6 4-8.8 2.4-2.1 5.7-3 8.9-3.2q1.5-0.1 3 0.2zm-3 6c-2.4 0.1-4.4 1.7-5.4 3.8-1 1.8-1 3.9-0.3 5.8 0.7 1.6 1.9 3.1 3.5 3.8 1.5 0.6 3.2 0.7 4.6 0.2 3.2-1.3 5.2-5.1 4.4-8.4-0.7-2.9-3.6-5.2-6.6-5.2q-0.1 0-0.2 0z"/><path fill-rule="evenodd" class="b" d="m113 6.1c2.7 2.4 4.3 6 4.5 9.6 0.2 3.6-1.2 7.2-3.9 9.6-2.8 2.7-6.8 3.9-10.6 4-2.6-0.3-5.2-1.2-7.3-2.7-2.4-1.7-4-4.4-4.7-7.3-0.7-3-0.4-6.2 0.9-9 2.1-4.5 6.7-7.7 11.7-7.8 3.4-0.1 6.9 1.3 9.4 3.6zm-10.2 2.2c-2 0.4-3.8 1.6-4.8 3.3-1.5 2.4-1.3 5.6-0.1 8 1 2 2.9 3.3 5 3.5 2.7 0.3 5.5-1.2 6.8-3.5 0.9-1.7 1.3-3.7 0.9-5.5-0.3-2-1.6-3.5-3.2-4.6-1.1-0.6-2.1-1.3-3.4-1.3q-0.6 0-1.2 0.1z"/><path class="b" d="m17.1 206.9c-1.5 0.1-3.1 0.5-4.4 1.3-1.9 1.3-3.3 3.3-3.5 5.7-0.2 1.8 0 3.7 0.8 5.4 0.9 1.8 2.5 3.2 4.4 3.8 2.2 0.9 4.7 1.1 6.9 0 2-1 3.8-2.8 4.4-5.1 0.9-2.9 0.3-6.3-1.8-8.6-1.8-1.8-4.3-2.6-6.8-2.5z"/><path class="b" d="m139.8 9.4c-2.8 0.1-5.5 2-6.7 4.5-1 2.1-1 4.6-0.4 6.9 0.7 2.3 2.5 4 4.7 4.9 1.2 0.5 2.5 0.7 3.8 0.7 1.6-0.3 3.3-0.6 4.5-1.8 2.7-2.2 3.7-6.2 2.6-9.5-1.1-3-4-5.2-7.2-5.6q-0.6-0.1-1.3-0.1z"/><path class="b" d="m63.5 158.6c-1.9 0.1-3.7 1.7-4 3.7-0.1 1.4 0.2 2.9 1 4.1 0.6 0.5 1.3 1.1 2.1 1.3 1.7 0.5 3.5-0.1 4.7-1.3 0.9-0.9 1.5-2.3 1.3-3.6-0.2-2.1-1.8-3.8-3.9-4.2q-0.6-0.1-1.2 0z"/><path class="b" d="m92.9 67.1c-1.7 0.1-3.3 1.1-3.9 2.8-0.5 1.3-0.6 2.8 0.2 4q0.6 0.9 1.5 1.5c0.1 0.1 0.4 0.3 0.6 0.4 0.9 0.2 1.9 0.4 2.9 0.2 1.2-0.2 2.2-1 2.6-2.1 0.7-1.4 0.8-3.2 0-4.6-0.7-1.3-2.1-2.3-3.6-2.2q-0.1 0-0.3 0z"/></svg>